<?xml version="1.0" encoding="utf-8"?>
<!-- Generator: Adobe Illustrator 17.0.0, SVG Export Plug-In . SVG Version: 6.00 Build 0)  -->
<!DOCTYPE svg PUBLIC "-//W3C//DTD SVG 1.1//EN" "http://www.w3.org/Graphics/SVG/1.1/DTD/svg11.dtd">
<svg version="1.1" id="Ebene_1" xmlns="http://www.w3.org/2000/svg" xmlns:xlink="http://www.w3.org/1999/xlink" x="0px" y="0px"
	 width="839.593px" height="747.357px" viewBox="0 0 839.593 747.357" enable-background="new 0 0 839.593 747.357"
	 xml:space="preserve">
<g>
	<path class="svg" fill="#33333" d="M401.16,405.848c4.831,16.822,1.943,34.042,2.719,51.056c-3.393,5.329-1.151,11.79-3.797,17.51
		c-2.311,4.994-4.154,10.332-6.051,15.542c-3.619,9.94-10.443,17.784-15.724,26.614c-7.06,11.805-14.43,23.414-21.422,35.272
		c-11.227,19.039-20.603,38.989-30.113,58.843c-5.043,10.529-9.997,21.195-13.657,32.511c-3.005,9.291-7.377,18.326-10.701,27.651
		c-2.183,6.125-4.475,12.225-6.303,18.458c-0.804,2.74-0.575,5.783-0.888,9.561c8.287,0,16.407,1.087,24.079-0.303
		c7.819-1.416,15.801-0.345,23.242-2.027c9.531-2.154,19.723-0.994,28.696-5.701c17.66-1.638,33.862-8.579,50.084-14.817
		c11.639-4.476,22.232-11.493,32.175-19.411c4.876-3.883,9.655-7.781,13.891-12.286c11.19-11.901,19.988-25.577,28.928-39.173
		c4.995-7.596,7.715-16.377,13.506-23.61c2.969-3.708,4.077-8.949,5.839-13.569c1.815-4.76,4.546-8.198,8.912-11.404
		c5.389-3.957,10.336-8.735,16.354-11.66c13.9-6.755,28.07-12.954,43.355-19.938c-1.673,5.839-2.487,10.521-4.327,14.759
		c-5.418,12.483-10.286,25.196-15.683,37.671c-5.283,12.213-11.174,24.276-18.018,35.672c-8.408,13.999-16.17,28.407-26.34,41.394
		c-5.998,7.659-11.875,15.296-18.588,22.377c-16.272,17.164-35.757,29.625-56.706,40.107c-12.765,6.387-26.129,11.525-39.707,15.5
		c-7.085,2.074-14.874,3.251-22.145,4.998c-9.534,2.291-19.552,1.833-28.739,5.561c-0.575,0.233-1.344,0.131-1.993,0.015
		c-7.608-1.356-14.771,2.079-22.259,2.033c-7.696-0.047-15.392-0.01-23.088-0.01c-7.027,0-14.1-0.516-21.07,0.113
		c-12.592,1.136-24.815-2.487-37.326-2.261c-3.323,0.06-6.677-1.595-10.729-2.647c-0.358-2.434-0.201-5.009,1.298-8.335
		c1.728-3.834-0.7-9.03,2.389-13.052c3.105-24.348,11.447-47.265,19.224-70.335c4.649-13.791,10.752-27.017,16.014-40.538
		c7.892-20.279,17.413-39.769,27.619-58.793c9.28-17.298,18.954-34.523,30.006-50.898c4.716-6.988,8.864-14.432,13.696-21.388
		c6.515-9.378,13.272-18.587,19.833-27.934c6.836-9.739,14.193-19.05,21.966-28.062C393.711,416.161,397.279,410.948,401.16,405.848
		z"/>
	<path class="svg"  fill="#33333" d="M13.368,745.039c-1.653-1.655-3.152-3.509-4.988-4.926c-6.898-5.322-9.487-12.419-7.953-20.72
		c1.326-7.177,3.63-14.084,11.503-17.103c4.099-1.572,8.001-3.475,12.612-3.468c50.774,0.073,101.55-0.153,152.322,0.196
		c11.584,0.079,19.481,5.34,23.747,16.531c4.15,10.887-3.833,25.767-15.561,29.434c-4.237,1.325-8.54,2.221-13.179,2.187
		c-30.062-0.226-60.131,0.184-90.189-0.214C58.908,746.654,36.043,748.958,13.368,745.039z"/>
	<path class="svg"  fill="#33333" d="M837.923,102.755c-1.328-9.825-3.79-19.205-7.46-28.134c-8.873-21.586-23.347-39.002-42.345-52.526
		c-9.41-6.699-19.566-12.158-30.553-15.873c-12.523-4.235-25.301-7.036-38.667-6.01c-7.762,0.404-15.445,0.062-23.316,1.636
		c-10.843,2.169-21.026,5.688-31.148,9.799c-11.331,4.603-20.071,13.083-29.803,20.036c-3.561,2.543-7.379,5.58-8.622,10.38
		c-9.96,8.881-16.211,20.716-22.975,31.719c-8.878,14.442-18.654,28.278-27.512,42.716c-6.593,10.745-14.819,20.54-20.876,31.55
		c-9.264,16.841-21.082,31.957-30.963,48.363c-6.506,10.801-15.075,20.433-20.936,31.531c-7.653,14.489-18.121,27.06-26.031,41.357
		c-4.976,8.994-11.544,17.167-16.053,26.512c-2.82,5.844-5.089,11.953-7.881,17.811c-5.563,11.672-8.569,24.218-10.419,36.754
		c-1.511,10.239-2.768,20.66-2.529,31.246c0.573,25.418,0.323,50.859,0.089,76.287c-0.059,6.407-0.223,13.185-2.306,19.101
		c-2.253,6.399-3.083,13.226-6.607,19.361c-3.504,6.1-5.105,13.259-8.068,19.712c-5.941,12.941-12.812,25.485-18.158,38.656
		c-2.787,6.866-5.52,14.024-5.109,22.066c0.485,9.466,4.304,15.824,12.884,19.72c5.575,2.531,17.919,2.944,22.423-0.102
		c9.353-6.327,16.774-14.814,24.749-22.675c0.789-4.722,5.232-6.535,7.828-9.819c2.798-3.541,5.422-7.265,8.555-10.487
		c9.096-9.356,18.381-18.529,27.664-27.701c1.557-1.538,3.735-2.569,5.359-3.802c11.845-8.992,25.106-14.93,38.764-20.509
		c16.023-6.546,31.804-13.785,47.277-21.548c11.758-5.899,23.382-12.155,33.691-20.685c3.464-2.866,6.827-5.922,10.394-8.673
		c13.176-10.16,20.349-17.774,29.667-31.74c9.63-14.433,19.375-28.789,29.091-43.164c5.657-8.37,12.127-16.3,16.867-25.158
		c9.225-17.24,21.186-32.65,31.484-49.159c7.841-12.571,17.388-24.152,24.434-37.12c4.666-8.588,10.707-16.16,15.393-24.679
		c4.692-8.531,10.814-16.267,16.138-24.462c7.541-11.607,15.496-22.982,22.515-34.877c4.509-7.641,7.64-16.211,9.547-25.137
		c2.122-9.933,5.478-19.611,5.175-29.967C839.356,117.597,838.933,110.228,837.923,102.755z M547.584,413.321
		c-5.764,9.311-12.138,18.208-17.742,27.688c-6.802,11.507-22.747,12.45-30.616,2.785c-1.788-2.196-5-3.211-5.112-6.921
		c-0.073-2.411-2.192-5.018-1.69-7.133c0.982-4.142,2.699-8.281,4.927-11.922c5.402-8.831,11.03-17.549,17.062-25.958
		c2.753-3.837,6.16-7.716,10.16-10.052c13.025-7.606,30.046,5.001,27.794,16.989C553.797,404.283,550.274,408.975,547.584,413.321z
		 M668.986,335.283c-0.755,7.221-7.036,13.334-14.143,14.377c-8.25,1.211-13.892-3.485-20.127-7.202
		c-16.675-9.939-31.92-22.071-49.095-31.31c-9.109-4.9-17.228-11.636-25.82-17.504c-4.153-2.836-8.087-6.216-12.62-8.219
		c-6.76-2.987-11.593-8.047-16.814-13.194c0-3.138,0.008-6.452-0.002-9.765c-0.016-5.511,2.492-8.642,7.233-12.073
		c8.151-5.899,14.396-2.302,20.694,1.723c14.304,9.142,27.819,19.615,42.551,27.965c13.906,7.882,26.374,17.87,40.385,25.602
		c6.467,3.569,12.785,7.978,18.942,12.292C665.818,321.932,669.809,327.412,668.986,335.283z M713.046,263.564
		c0.556,14.606-10.71,19.273-22.255,17.643c-0.843-0.119-1.582-0.985-2.368-1.505c-17.822-11.798-35.201-24.349-53.599-35.17
		c-16.205-9.531-30.639-21.795-47.643-30c-2.245-1.084-4.275-2.679-6.263-4.221c-8.051-6.245-8.208-17.101-4.156-24.459
		c3.47-6.301,16.895-8.792,23.108-4.689c12.346,8.152,24.105,17.318,36.97,24.524c14.222,7.967,26.803,18.359,41.295,25.939
		c10.265,5.369,19.636,12.601,28.887,19.679C710.803,254.197,714.508,258.291,713.046,263.564z M757.139,199.852
		c-0.953,5.491-4.011,9.557-9.576,11.962c-5.631,2.434-11.171,1.834-15.508-1.19c-17.273-12.044-35.243-22.99-52.853-34.497
		c-16.259-10.624-32.138-21.82-48.987-31.558c-3.781-2.185-6.544-6.291-9.453-9.782c-3.219-3.865-1.737-8.697-2.123-13.075
		c1.016-1.016,2.386-1.795,2.829-2.934c1.746-4.488,4.941-7.575,9.534-8.037c5.714-0.575,11.228-0.228,16.571,3.418
		c20.233,13.809,40.745,27.213,61.276,40.578c13.638,8.878,27.599,17.263,41.192,26.207
		C756.725,185.343,758.441,192.355,757.139,199.852z"/>
</g>
</svg>
